<?xml version="1.0" encoding="UTF-8"?>
<!DOCTYPE svg PUBLIC "-//W3C//DTD SVG 1.1//EN" "http://www.w3.org/Graphics/SVG/1.1/DTD/svg11.dtd">
<svg xmlns="http://www.w3.org/2000/svg" version="1.1" viewBox="0 0 73 73">
	<rect width="100%" height="100%" fill="#FFFFFF" stroke-width="0"/>
	<path d="M4,4h1v1h-1z M5,4h1v1h-1z M6,4h1v1h-1z M7,4h1v1h-1z M8,4h1v1h-1z M9,4h1v1h-1z M10,4h1v1h-1z M15,4h1v1h-1z M19,4h1v1h-1z M20,4h1v1h-1z M23,4h1v1h-1z M26,4h1v1h-1z M28,4h1v1h-1z M29,4h1v1h-1z M30,4h1v1h-1z M33,4h1v1h-1z M34,4h1v1h-1z M36,4h1v1h-1z M39,4h1v1h-1z M40,4h1v1h-1z M44,4h1v1h-1z M45,4h1v1h-1z M46,4h1v1h-1z M48,4h1v1h-1z M49,4h1v1h-1z M52,4h1v1h-1z M55,4h1v1h-1z M59,4h1v1h-1z M62,4h1v1h-1z M63,4h1v1h-1z M64,4h1v1h-1z M65,4h1v1h-1z M66,4h1v1h-1z M67,4h1v1h-1z M68,4h1v1h-1z M4,5h1v1h-1z M10,5h1v1h-1z M12,5h1v1h-1z M13,5h1v1h-1z M15,5h1v1h-1z M16,5h1v1h-1z M18,5h1v1h-1z M22,5h1v1h-1z M25,5h1v1h-1z M27,5h1v1h-1z M28,5h1v1h-1z M30,5h1v1h-1z M33,5h1v1h-1z M37,5h1v1h-1z M38,5h1v1h-1z M40,5h1v1h-1z M43,5h1v1h-1z M44,5h1v1h-1z M45,5h1v1h-1z M49,5h1v1h-1z M50,5h1v1h-1z M51,5h1v1h-1z M52,5h1v1h-1z M54,5h1v1h-1z M55,5h1v1h-1z M56,5h1v1h-1z M60,5h1v1h-1z M62,5h1v1h-1z M68,5h1v1h-1z M4,6h1v1h-1z M6,6h1v1h-1z M7,6h1v1h-1z M8,6h1v1h-1z M10,6h1v1h-1z M13,6h1v1h-1z M19,6h1v1h-1z M20,6h1v1h-1z M21,6h1v1h-1z M22,6h1v1h-1z M30,6h1v1h-1z M33,6h1v1h-1z M36,6h1v1h-1z M37,6h1v1h-1z M38,6h1v1h-1z M39,6h1v1h-1z M41,6h1v1h-1z M44,6h1v1h-1z M48,6h1v1h-1z M49,6h1v1h-1z M50,6h1v1h-1z M55,6h1v1h-1z M56,6h1v1h-1z M58,6h1v1h-1z M60,6h1v1h-1z M62,6h1v1h-1z M64,6h1v1h-1z M65,6h1v1h-1z M66,6h1v1h-1z M68,6h1v1h-1z M4,7h1v1h-1z M6,7h1v1h-1z M7,7h1v1h-1z M8,7h1v1h-1z M10,7h1v1h-1z M12,7h1v1h-1z M13,7h1v1h-1z M16,7h1v1h-1z M17,7h1v1h-1z M20,7h1v1h-1z M22,7h1v1h-1z M25,7h1v1h-1z M29,7h1v1h-1z M32,7h1v1h-1z M35,7h1v1h-1z M39,7h1v1h-1z M40,7h1v1h-1z M41,7h1v1h-1z M45,7h1v1h-1z M47,7h1v1h-1z M51,7h1v1h-1z M52,7h1v1h-1z M54,7h1v1h-1z M57,7h1v1h-1z M58,7h1v1h-1z M59,7h1v1h-1z M62,7h1v1h-1z M64,7h1v1h-1z M65,7h1v1h-1z M66,7h1v1h-1z M68,7h1v1h-1z M4,8h1v1h-1z M6,8h1v1h-1z M7,8h1v1h-1z M8,8h1v1h-1z M10,8h1v1h-1z M13,8h1v1h-1z M14,8h1v1h-1z M17,8h1v1h-1z M19,8h1v1h-1z M21,8h1v1h-1z M22,8h1v1h-1z M23,8h1v1h-1z M28,8h1v1h-1z M29,8h1v1h-1z M30,8h1v1h-1z M34,8h1v1h-1z M35,8h1v1h-1z M36,8h1v1h-1z M37,8h1v1h-1z M38,8h1v1h-1z M40,8h1v1h-1z M41,8h1v1h-1z M46,8h1v1h-1z M53,8h1v1h-1z M55,8h1v1h-1z M57,8h1v1h-1z M60,8h1v1h-1z M62,8h1v1h-1z M64,8h1v1h-1z M65,8h1v1h-1z M66,8h1v1h-1z M68,8h1v1h-1z M4,9h1v1h-1z M10,9h1v1h-1z M12,9h1v1h-1z M14,9h1v1h-1z M15,9h1v1h-1z M16,9h1v1h-1z M18,9h1v1h-1z M20,9h1v1h-1z M21,9h1v1h-1z M22,9h1v1h-1z M24,9h1v1h-1z M31,9h1v1h-1z M33,9h1v1h-1z M34,9h1v1h-1z M38,9h1v1h-1z M40,9h1v1h-1z M43,9h1v1h-1z M44,9h1v1h-1z M46,9h1v1h-1z M47,9h1v1h-1z M48,9h1v1h-1z M49,9h1v1h-1z M50,9h1v1h-1z M51,9h1v1h-1z M54,9h1v1h-1z M57,9h1v1h-1z M58,9h1v1h-1z M62,9h1v1h-1z M68,9h1v1h-1z M4,10h1v1h-1z M5,10h1v1h-1z M6,10h1v1h-1z M7,10h1v1h-1z M8,10h1v1h-1z M9,10h1v1h-1z M10,10h1v1h-1z M12,10h1v1h-1z M14,10h1v1h-1z M16,10h1v1h-1z M18,10h1v1h-1z M20,10h1v1h-1z M22,10h1v1h-1z M24,10h1v1h-1z M26,10h1v1h-1z M28,10h1v1h-1z M30,10h1v1h-1z M32,10h1v1h-1z M34,10h1v1h-1z M36,10h1v1h-1z M38,10h1v1h-1z M40,10h1v1h-1z M42,10h1v1h-1z M44,10h1v1h-1z M46,10h1v1h-1z M48,10h1v1h-1z M50,10h1v1h-1z M52,10h1v1h-1z M54,10h1v1h-1z M56,10h1v1h-1z M58,10h1v1h-1z M60,10h1v1h-1z M62,10h1v1h-1z M63,10h1v1h-1z M64,10h1v1h-1z M65,10h1v1h-1z M66,10h1v1h-1z M67,10h1v1h-1z M68,10h1v1h-1z M15,11h1v1h-1z M16,11h1v1h-1z M17,11h1v1h-1z M19,11h1v1h-1z M20,11h1v1h-1z M22,11h1v1h-1z M23,11h1v1h-1z M24,11h1v1h-1z M25,11h1v1h-1z M27,11h1v1h-1z M29,11h1v1h-1z M30,11h1v1h-1z M31,11h1v1h-1z M34,11h1v1h-1z M38,11h1v1h-1z M41,11h1v1h-1z M44,11h1v1h-1z M45,11h1v1h-1z M46,11h1v1h-1z M47,11h1v1h-1z M48,11h1v1h-1z M49,11h1v1h-1z M51,11h1v1h-1z M52,11h1v1h-1z M53,11h1v1h-1z M55,11h1v1h-1z M56,11h1v1h-1z M59,11h1v1h-1z M60,11h1v1h-1z M4,12h1v1h-1z M5,12h1v1h-1z M6,12h1v1h-1z M7,12h1v1h-1z M8,12h1v1h-1z M10,12h1v1h-1z M11,12h1v1h-1z M12,12h1v1h-1z M13,12h1v1h-1z M17,12h1v1h-1z M18,12h1v1h-1z M20,12h1v1h-1z M22,12h1v1h-1z M23,12h1v1h-1z M24,12h1v1h-1z M25,12h1v1h-1z M27,12h1v1h-1z M32,12h1v1h-1z M33,12h1v1h-1z M34,12h1v1h-1z M35,12h1v1h-1z M36,12h1v1h-1z M37,12h1v1h-1z M38,12h1v1h-1z M40,12h1v1h-1z M41,12h1v1h-1z M45,12h1v1h-1z M46,12h1v1h-1z M47,12h1v1h-1z M51,12h1v1h-1z M52,12h1v1h-1z M53,12h1v1h-1z M57,12h1v1h-1z M60,12h1v1h-1z M61,12h1v1h-1z M63,12h1v1h-1z M65,12h1v1h-1z M67,12h1v1h-1z M5,13h1v1h-1z M6,13h1v1h-1z M7,13h1v1h-1z M12,13h1v1h-1z M13,13h1v1h-1z M14,13h1v1h-1z M16,13h1v1h-1z M23,13h1v1h-1z M25,13h1v1h-1z M26,13h1v1h-1z M27,13h1v1h-1z M28,13h1v1h-1z M30,13h1v1h-1z M35,13h1v1h-1z M40,13h1v1h-1z M41,13h1v1h-1z M43,13h1v1h-1z M45,13h1v1h-1z M46,13h1v1h-1z M55,13h1v1h-1z M58,13h1v1h-1z M59,13h1v1h-1z M63,13h1v1h-1z M65,13h1v1h-1z M66,13h1v1h-1z M4,14h1v1h-1z M7,14h1v1h-1z M10,14h1v1h-1z M11,14h1v1h-1z M14,14h1v1h-1z M17,14h1v1h-1z M20,14h1v1h-1z M22,14h1v1h-1z M24,14h1v1h-1z M25,14h1v1h-1z M27,14h1v1h-1z M28,14h1v1h-1z M30,14h1v1h-1z M36,14h1v1h-1z M37,14h1v1h-1z M38,14h1v1h-1z M39,14h1v1h-1z M40,14h1v1h-1z M42,14h1v1h-1z M43,14h1v1h-1z M45,14h1v1h-1z M47,14h1v1h-1z M48,14h1v1h-1z M53,14h1v1h-1z M54,14h1v1h-1z M58,14h1v1h-1z M60,14h1v1h-1z M61,14h1v1h-1z M62,14h1v1h-1z M63,14h1v1h-1z M66,14h1v1h-1z M4,15h1v1h-1z M5,15h1v1h-1z M6,15h1v1h-1z M7,15h1v1h-1z M8,15h1v1h-1z M9,15h1v1h-1z M11,15h1v1h-1z M13,15h1v1h-1z M14,15h1v1h-1z M15,15h1v1h-1z M17,15h1v1h-1z M18,15h1v1h-1z M19,15h1v1h-1z M20,15h1v1h-1z M23,15h1v1h-1z M24,15h1v1h-1z M25,15h1v1h-1z M27,15h1v1h-1z M28,15h1v1h-1z M29,15h1v1h-1z M30,15h1v1h-1z M34,15h1v1h-1z M37,15h1v1h-1z M43,15h1v1h-1z M45,15h1v1h-1z M47,15h1v1h-1z M48,15h1v1h-1z M53,15h1v1h-1z M55,15h1v1h-1z M56,15h1v1h-1z M59,15h1v1h-1z M60,15h1v1h-1z M61,15h1v1h-1z M63,15h1v1h-1z M65,15h1v1h-1z M67,15h1v1h-1z M68,15h1v1h-1z M6,16h1v1h-1z M7,16h1v1h-1z M10,16h1v1h-1z M12,16h1v1h-1z M13,16h1v1h-1z M14,16h1v1h-1z M15,16h1v1h-1z M19,16h1v1h-1z M21,16h1v1h-1z M22,16h1v1h-1z M28,16h1v1h-1z M31,16h1v1h-1z M34,16h1v1h-1z M37,16h1v1h-1z M39,16h1v1h-1z M40,16h1v1h-1z M45,16h1v1h-1z M47,16h1v1h-1z M50,16h1v1h-1z M51,16h1v1h-1z M52,16h1v1h-1z M57,16h1v1h-1z M58,16h1v1h-1z M60,16h1v1h-1z M61,16h1v1h-1z M62,16h1v1h-1z M63,16h1v1h-1z M64,16h1v1h-1z M65,16h1v1h-1z M66,16h1v1h-1z M68,16h1v1h-1z M4,17h1v1h-1z M5,17h1v1h-1z M6,17h1v1h-1z M8,17h1v1h-1z M9,17h1v1h-1z M13,17h1v1h-1z M14,17h1v1h-1z M16,17h1v1h-1z M17,17h1v1h-1z M18,17h1v1h-1z M19,17h1v1h-1z M23,17h1v1h-1z M24,17h1v1h-1z M26,17h1v1h-1z M27,17h1v1h-1z M30,17h1v1h-1z M31,17h1v1h-1z M34,17h1v1h-1z M36,17h1v1h-1z M40,17h1v1h-1z M41,17h1v1h-1z M43,17h1v1h-1z M44,17h1v1h-1z M45,17h1v1h-1z M46,17h1v1h-1z M47,17h1v1h-1z M48,17h1v1h-1z M49,17h1v1h-1z M51,17h1v1h-1z M52,17h1v1h-1z M58,17h1v1h-1z M66,17h1v1h-1z M67,17h1v1h-1z M68,17h1v1h-1z M4,18h1v1h-1z M5,18h1v1h-1z M7,18h1v1h-1z M9,18h1v1h-1z M10,18h1v1h-1z M13,18h1v1h-1z M16,18h1v1h-1z M18,18h1v1h-1z M21,18h1v1h-1z M22,18h1v1h-1z M24,18h1v1h-1z M25,18h1v1h-1z M26,18h1v1h-1z M30,18h1v1h-1z M32,18h1v1h-1z M33,18h1v1h-1z M34,18h1v1h-1z M36,18h1v1h-1z M37,18h1v1h-1z M38,18h1v1h-1z M39,18h1v1h-1z M41,18h1v1h-1z M42,18h1v1h-1z M43,18h1v1h-1z M44,18h1v1h-1z M45,18h1v1h-1z M47,18h1v1h-1z M49,18h1v1h-1z M50,18h1v1h-1z M52,18h1v1h-1z M53,18h1v1h-1z M54,18h1v1h-1z M57,18h1v1h-1z M62,18h1v1h-1z M63,18h1v1h-1z M6,19h1v1h-1z M9,19h1v1h-1z M13,19h1v1h-1z M15,19h1v1h-1z M19,19h1v1h-1z M20,19h1v1h-1z M22,19h1v1h-1z M23,19h1v1h-1z M24,19h1v1h-1z M26,19h1v1h-1z M27,19h1v1h-1z M31,19h1v1h-1z M32,19h1v1h-1z M33,19h1v1h-1z M34,19h1v1h-1z M36,19h1v1h-1z M37,19h1v1h-1z M42,19h1v1h-1z M44,19h1v1h-1z M45,19h1v1h-1z M46,19h1v1h-1z M49,19h1v1h-1z M54,19h1v1h-1z M55,19h1v1h-1z M56,19h1v1h-1z M57,19h1v1h-1z M58,19h1v1h-1z M60,19h1v1h-1z M61,19h1v1h-1z M63,19h1v1h-1z M68,19h1v1h-1z M4,20h1v1h-1z M5,20h1v1h-1z M6,20h1v1h-1z M10,20h1v1h-1z M11,20h1v1h-1z M12,20h1v1h-1z M16,20h1v1h-1z M18,20h1v1h-1z M19,20h1v1h-1z M21,20h1v1h-1z M22,20h1v1h-1z M24,20h1v1h-1z M25,20h1v1h-1z M29,20h1v1h-1z M31,20h1v1h-1z M32,20h1v1h-1z M35,20h1v1h-1z M38,20h1v1h-1z M39,20h1v1h-1z M40,20h1v1h-1z M42,20h1v1h-1z M43,20h1v1h-1z M45,20h1v1h-1z M46,20h1v1h-1z M47,20h1v1h-1z M49,20h1v1h-1z M51,20h1v1h-1z M52,20h1v1h-1z M53,20h1v1h-1z M55,20h1v1h-1z M57,20h1v1h-1z M58,20h1v1h-1z M59,20h1v1h-1z M60,20h1v1h-1z M61,20h1v1h-1z M63,20h1v1h-1z M64,20h1v1h-1z M66,20h1v1h-1z M67,20h1v1h-1z M4,21h1v1h-1z M7,21h1v1h-1z M8,21h1v1h-1z M9,21h1v1h-1z M12,21h1v1h-1z M13,21h1v1h-1z M17,21h1v1h-1z M19,21h1v1h-1z M20,21h1v1h-1z M25,21h1v1h-1z M28,21h1v1h-1z M30,21h1v1h-1z M34,21h1v1h-1z M35,21h1v1h-1z M40,21h1v1h-1z M45,21h1v1h-1z M46,21h1v1h-1z M47,21h1v1h-1z M51,21h1v1h-1z M52,21h1v1h-1z M55,21h1v1h-1z M56,21h1v1h-1z M57,21h1v1h-1z M58,21h1v1h-1z M63,21h1v1h-1z M65,21h1v1h-1z M66,21h1v1h-1z M67,21h1v1h-1z M68,21h1v1h-1z M5,22h1v1h-1z M6,22h1v1h-1z M10,22h1v1h-1z M11,22h1v1h-1z M15,22h1v1h-1z M16,22h1v1h-1z M21,22h1v1h-1z M26,22h1v1h-1z M28,22h1v1h-1z M29,22h1v1h-1z M30,22h1v1h-1z M31,22h1v1h-1z M34,22h1v1h-1z M36,22h1v1h-1z M37,22h1v1h-1z M38,22h1v1h-1z M40,22h1v1h-1z M43,22h1v1h-1z M44,22h1v1h-1z M45,22h1v1h-1z M47,22h1v1h-1z M49,22h1v1h-1z M50,22h1v1h-1z M53,22h1v1h-1z M54,22h1v1h-1z M55,22h1v1h-1z M57,22h1v1h-1z M59,22h1v1h-1z M61,22h1v1h-1z M62,22h1v1h-1z M64,22h1v1h-1z M67,22h1v1h-1z M5,23h1v1h-1z M6,23h1v1h-1z M9,23h1v1h-1z M12,23h1v1h-1z M14,23h1v1h-1z M15,23h1v1h-1z M16,23h1v1h-1z M23,23h1v1h-1z M25,23h1v1h-1z M26,23h1v1h-1z M29,23h1v1h-1z M31,23h1v1h-1z M33,23h1v1h-1z M34,23h1v1h-1z M35,23h1v1h-1z M37,23h1v1h-1z M43,23h1v1h-1z M48,23h1v1h-1z M50,23h1v1h-1z M53,23h1v1h-1z M54,23h1v1h-1z M56,23h1v1h-1z M57,23h1v1h-1z M58,23h1v1h-1z M60,23h1v1h-1z M63,23h1v1h-1z M64,23h1v1h-1z M65,23h1v1h-1z M68,23h1v1h-1z M4,24h1v1h-1z M5,24h1v1h-1z M8,24h1v1h-1z M9,24h1v1h-1z M10,24h1v1h-1z M13,24h1v1h-1z M15,24h1v1h-1z M16,24h1v1h-1z M17,24h1v1h-1z M18,24h1v1h-1z M19,24h1v1h-1z M21,24h1v1h-1z M24,24h1v1h-1z M26,24h1v1h-1z M31,24h1v1h-1z M32,24h1v1h-1z M35,24h1v1h-1z M37,24h1v1h-1z M38,24h1v1h-1z M40,24h1v1h-1z M41,24h1v1h-1z M42,24h1v1h-1z M43,24h1v1h-1z M47,24h1v1h-1z M49,24h1v1h-1z M50,24h1v1h-1z M51,24h1v1h-1z M52,24h1v1h-1z M57,24h1v1h-1z M58,24h1v1h-1z M60,24h1v1h-1z M61,24h1v1h-1z M62,24h1v1h-1z M63,24h1v1h-1z M64,24h1v1h-1z M66,24h1v1h-1z M5,25h1v1h-1z M7,25h1v1h-1z M9,25h1v1h-1z M12,25h1v1h-1z M13,25h1v1h-1z M14,25h1v1h-1z M15,25h1v1h-1z M16,25h1v1h-1z M17,25h1v1h-1z M18,25h1v1h-1z M20,25h1v1h-1z M22,25h1v1h-1z M23,25h1v1h-1z M25,25h1v1h-1z M27,25h1v1h-1z M28,25h1v1h-1z M29,25h1v1h-1z M30,25h1v1h-1z M31,25h1v1h-1z M34,25h1v1h-1z M35,25h1v1h-1z M39,25h1v1h-1z M40,25h1v1h-1z M41,25h1v1h-1z M43,25h1v1h-1z M44,25h1v1h-1z M46,25h1v1h-1z M47,25h1v1h-1z M48,25h1v1h-1z M51,25h1v1h-1z M52,25h1v1h-1z M53,25h1v1h-1z M56,25h1v1h-1z M57,25h1v1h-1z M58,25h1v1h-1z M59,25h1v1h-1z M63,25h1v1h-1z M64,25h1v1h-1z M67,25h1v1h-1z M68,25h1v1h-1z M5,26h1v1h-1z M6,26h1v1h-1z M7,26h1v1h-1z M9,26h1v1h-1z M10,26h1v1h-1z M12,26h1v1h-1z M15,26h1v1h-1z M16,26h1v1h-1z M17,26h1v1h-1z M18,26h1v1h-1z M19,26h1v1h-1z M20,26h1v1h-1z M22,26h1v1h-1z M23,26h1v1h-1z M25,26h1v1h-1z M30,26h1v1h-1z M33,26h1v1h-1z M37,26h1v1h-1z M38,26h1v1h-1z M39,26h1v1h-1z M40,26h1v1h-1z M41,26h1v1h-1z M43,26h1v1h-1z M44,26h1v1h-1z M46,26h1v1h-1z M47,26h1v1h-1z M48,26h1v1h-1z M54,26h1v1h-1z M55,26h1v1h-1z M57,26h1v1h-1z M61,26h1v1h-1z M62,26h1v1h-1z M64,26h1v1h-1z M65,26h1v1h-1z M5,27h1v1h-1z M6,27h1v1h-1z M8,27h1v1h-1z M11,27h1v1h-1z M13,27h1v1h-1z M14,27h1v1h-1z M18,27h1v1h-1z M20,27h1v1h-1z M22,27h1v1h-1z M24,27h1v1h-1z M25,27h1v1h-1z M28,27h1v1h-1z M31,27h1v1h-1z M32,27h1v1h-1z M33,27h1v1h-1z M34,27h1v1h-1z M36,27h1v1h-1z M37,27h1v1h-1z M39,27h1v1h-1z M42,27h1v1h-1z M43,27h1v1h-1z M44,27h1v1h-1z M46,27h1v1h-1z M48,27h1v1h-1z M49,27h1v1h-1z M51,27h1v1h-1z M54,27h1v1h-1z M56,27h1v1h-1z M61,27h1v1h-1z M62,27h1v1h-1z M65,27h1v1h-1z M6,28h1v1h-1z M9,28h1v1h-1z M10,28h1v1h-1z M11,28h1v1h-1z M12,28h1v1h-1z M13,28h1v1h-1z M15,28h1v1h-1z M19,28h1v1h-1z M20,28h1v1h-1z M22,28h1v1h-1z M24,28h1v1h-1z M25,28h1v1h-1z M29,28h1v1h-1z M32,28h1v1h-1z M35,28h1v1h-1z M38,28h1v1h-1z M39,28h1v1h-1z M40,28h1v1h-1z M41,28h1v1h-1z M43,28h1v1h-1z M45,28h1v1h-1z M47,28h1v1h-1z M49,28h1v1h-1z M50,28h1v1h-1z M52,28h1v1h-1z M54,28h1v1h-1z M60,28h1v1h-1z M63,28h1v1h-1z M64,28h1v1h-1z M65,28h1v1h-1z M67,28h1v1h-1z M68,28h1v1h-1z M4,29h1v1h-1z M6,29h1v1h-1z M8,29h1v1h-1z M14,29h1v1h-1z M15,29h1v1h-1z M16,29h1v1h-1z M21,29h1v1h-1z M23,29h1v1h-1z M25,29h1v1h-1z M26,29h1v1h-1z M27,29h1v1h-1z M28,29h1v1h-1z M29,29h1v1h-1z M37,29h1v1h-1z M44,29h1v1h-1z M45,29h1v1h-1z M46,29h1v1h-1z M57,29h1v1h-1z M58,29h1v1h-1z M59,29h1v1h-1z M68,29h1v1h-1z M4,30h1v1h-1z M6,30h1v1h-1z M7,30h1v1h-1z M10,30h1v1h-1z M11,30h1v1h-1z M12,30h1v1h-1z M13,30h1v1h-1z M15,30h1v1h-1z M18,30h1v1h-1z M21,30h1v1h-1z M23,30h1v1h-1z M27,30h1v1h-1z M31,30h1v1h-1z M33,30h1v1h-1z M34,30h1v1h-1z M35,30h1v1h-1z M38,30h1v1h-1z M39,30h1v1h-1z M41,30h1v1h-1z M42,30h1v1h-1z M43,30h1v1h-1z M46,30h1v1h-1z M50,30h1v1h-1z M55,30h1v1h-1z M57,30h1v1h-1z M59,30h1v1h-1z M61,30h1v1h-1z M62,30h1v1h-1z M63,30h1v1h-1z M64,30h1v1h-1z M65,30h1v1h-1z M66,30h1v1h-1z M4,31h1v1h-1z M5,31h1v1h-1z M6,31h1v1h-1z M7,31h1v1h-1z M11,31h1v1h-1z M13,31h1v1h-1z M14,31h1v1h-1z M15,31h1v1h-1z M16,31h1v1h-1z M17,31h1v1h-1z M18,31h1v1h-1z M19,31h1v1h-1z M21,31h1v1h-1z M23,31h1v1h-1z M27,31h1v1h-1z M28,31h1v1h-1z M32,31h1v1h-1z M33,31h1v1h-1z M34,31h1v1h-1z M35,31h1v1h-1z M36,31h1v1h-1z M38,31h1v1h-1z M43,31h1v1h-1z M46,31h1v1h-1z M47,31h1v1h-1z M48,31h1v1h-1z M49,31h1v1h-1z M54,31h1v1h-1z M56,31h1v1h-1z M59,31h1v1h-1z M61,31h1v1h-1z M63,31h1v1h-1z M65,31h1v1h-1z M7,32h1v1h-1z M8,32h1v1h-1z M10,32h1v1h-1z M12,32h1v1h-1z M17,32h1v1h-1z M18,32h1v1h-1z M21,32h1v1h-1z M22,32h1v1h-1z M23,32h1v1h-1z M27,32h1v1h-1z M28,32h1v1h-1z M29,32h1v1h-1z M32,32h1v1h-1z M33,32h1v1h-1z M39,32h1v1h-1z M40,32h1v1h-1z M42,32h1v1h-1z M47,32h1v1h-1z M49,32h1v1h-1z M51,32h1v1h-1z M52,32h1v1h-1z M54,32h1v1h-1z M57,32h1v1h-1z M60,32h1v1h-1z M61,32h1v1h-1z M64,32h1v1h-1z M66,32h1v1h-1z M67,32h1v1h-1z M68,32h1v1h-1z M4,33h1v1h-1z M7,33h1v1h-1z M8,33h1v1h-1z M11,33h1v1h-1z M16,33h1v1h-1z M19,33h1v1h-1z M21,33h1v1h-1z M25,33h1v1h-1z M26,33h1v1h-1z M28,33h1v1h-1z M29,33h1v1h-1z M30,33h1v1h-1z M31,33h1v1h-1z M33,33h1v1h-1z M35,33h1v1h-1z M36,33h1v1h-1z M41,33h1v1h-1z M43,33h1v1h-1z M44,33h1v1h-1z M46,33h1v1h-1z M47,33h1v1h-1z M48,33h1v1h-1z M51,33h1v1h-1z M52,33h1v1h-1z M55,33h1v1h-1z M58,33h1v1h-1z M63,33h1v1h-1z M64,33h1v1h-1z M66,33h1v1h-1z M67,33h1v1h-1z M68,33h1v1h-1z M4,34h1v1h-1z M5,34h1v1h-1z M8,34h1v1h-1z M9,34h1v1h-1z M10,34h1v1h-1z M11,34h1v1h-1z M12,34h1v1h-1z M13,34h1v1h-1z M18,34h1v1h-1z M21,34h1v1h-1z M23,34h1v1h-1z M25,34h1v1h-1z M26,34h1v1h-1z M27,34h1v1h-1z M28,34h1v1h-1z M30,34h1v1h-1z M34,34h1v1h-1z M35,34h1v1h-1z M36,34h1v1h-1z M37,34h1v1h-1z M38,34h1v1h-1z M40,34h1v1h-1z M42,34h1v1h-1z M43,34h1v1h-1z M47,34h1v1h-1z M48,34h1v1h-1z M49,34h1v1h-1z M50,34h1v1h-1z M51,34h1v1h-1z M53,34h1v1h-1z M54,34h1v1h-1z M55,34h1v1h-1z M59,34h1v1h-1z M60,34h1v1h-1z M61,34h1v1h-1z M62,34h1v1h-1z M63,34h1v1h-1z M64,34h1v1h-1z M65,34h1v1h-1z M5,35h1v1h-1z M6,35h1v1h-1z M7,35h1v1h-1z M8,35h1v1h-1z M12,35h1v1h-1z M16,35h1v1h-1z M17,35h1v1h-1z M18,35h1v1h-1z M19,35h1v1h-1z M21,35h1v1h-1z M25,35h1v1h-1z M26,35h1v1h-1z M28,35h1v1h-1z M29,35h1v1h-1z M31,35h1v1h-1z M32,35h1v1h-1z M34,35h1v1h-1z M38,35h1v1h-1z M42,35h1v1h-1z M43,35h1v1h-1z M44,35h1v1h-1z M45,35h1v1h-1z M46,35h1v1h-1z M48,35h1v1h-1z M54,35h1v1h-1z M58,35h1v1h-1z M60,35h1v1h-1z M64,35h1v1h-1z M67,35h1v1h-1z M68,35h1v1h-1z M6,36h1v1h-1z M8,36h1v1h-1z M10,36h1v1h-1z M12,36h1v1h-1z M14,36h1v1h-1z M15,36h1v1h-1z M18,36h1v1h-1z M19,36h1v1h-1z M20,36h1v1h-1z M21,36h1v1h-1z M22,36h1v1h-1z M24,36h1v1h-1z M25,36h1v1h-1z M29,36h1v1h-1z M31,36h1v1h-1z M32,36h1v1h-1z M34,36h1v1h-1z M36,36h1v1h-1z M38,36h1v1h-1z M40,36h1v1h-1z M41,36h1v1h-1z M43,36h1v1h-1z M46,36h1v1h-1z M47,36h1v1h-1z M51,36h1v1h-1z M52,36h1v1h-1z M53,36h1v1h-1z M54,36h1v1h-1z M59,36h1v1h-1z M60,36h1v1h-1z M62,36h1v1h-1z M64,36h1v1h-1z M65,36h1v1h-1z M66,36h1v1h-1z M67,36h1v1h-1z M68,36h1v1h-1z M4,37h1v1h-1z M5,37h1v1h-1z M6,37h1v1h-1z M8,37h1v1h-1z M12,37h1v1h-1z M13,37h1v1h-1z M14,37h1v1h-1z M15,37h1v1h-1z M17,37h1v1h-1z M18,37h1v1h-1z M23,37h1v1h-1z M25,37h1v1h-1z M28,37h1v1h-1z M29,37h1v1h-1z M30,37h1v1h-1z M31,37h1v1h-1z M33,37h1v1h-1z M34,37h1v1h-1z M38,37h1v1h-1z M40,37h1v1h-1z M41,37h1v1h-1z M43,37h1v1h-1z M45,37h1v1h-1z M46,37h1v1h-1z M51,37h1v1h-1z M57,37h1v1h-1z M58,37h1v1h-1z M60,37h1v1h-1z M64,37h1v1h-1z M67,37h1v1h-1z M68,37h1v1h-1z M4,38h1v1h-1z M5,38h1v1h-1z M8,38h1v1h-1z M9,38h1v1h-1z M10,38h1v1h-1z M11,38h1v1h-1z M12,38h1v1h-1z M15,38h1v1h-1z M16,38h1v1h-1z M17,38h1v1h-1z M22,38h1v1h-1z M23,38h1v1h-1z M25,38h1v1h-1z M28,38h1v1h-1z M30,38h1v1h-1z M31,38h1v1h-1z M33,38h1v1h-1z M34,38h1v1h-1z M35,38h1v1h-1z M36,38h1v1h-1z M37,38h1v1h-1z M38,38h1v1h-1z M39,38h1v1h-1z M40,38h1v1h-1z M41,38h1v1h-1z M42,38h1v1h-1z M43,38h1v1h-1z M44,38h1v1h-1z M45,38h1v1h-1z M47,38h1v1h-1z M48,38h1v1h-1z M49,38h1v1h-1z M50,38h1v1h-1z M51,38h1v1h-1z M55,38h1v1h-1z M60,38h1v1h-1z M61,38h1v1h-1z M62,38h1v1h-1z M63,38h1v1h-1z M64,38h1v1h-1z M65,38h1v1h-1z M6,39h1v1h-1z M9,39h1v1h-1z M12,39h1v1h-1z M14,39h1v1h-1z M15,39h1v1h-1z M17,39h1v1h-1z M18,39h1v1h-1z M19,39h1v1h-1z M20,39h1v1h-1z M21,39h1v1h-1z M22,39h1v1h-1z M24,39h1v1h-1z M28,39h1v1h-1z M29,39h1v1h-1z M30,39h1v1h-1z M33,39h1v1h-1z M34,39h1v1h-1z M37,39h1v1h-1z M38,39h1v1h-1z M41,39h1v1h-1z M43,39h1v1h-1z M48,39h1v1h-1z M54,39h1v1h-1z M56,39h1v1h-1z M58,39h1v1h-1z M59,39h1v1h-1z M61,39h1v1h-1z M62,39h1v1h-1z M63,39h1v1h-1z M65,39h1v1h-1z M68,39h1v1h-1z M5,40h1v1h-1z M7,40h1v1h-1z M8,40h1v1h-1z M9,40h1v1h-1z M10,40h1v1h-1z M11,40h1v1h-1z M12,40h1v1h-1z M13,40h1v1h-1z M14,40h1v1h-1z M17,40h1v1h-1z M20,40h1v1h-1z M22,40h1v1h-1z M24,40h1v1h-1z M25,40h1v1h-1z M27,40h1v1h-1z M31,40h1v1h-1z M32,40h1v1h-1z M36,40h1v1h-1z M38,40h1v1h-1z M39,40h1v1h-1z M40,40h1v1h-1z M43,40h1v1h-1z M45,40h1v1h-1z M46,40h1v1h-1z M47,40h1v1h-1z M50,40h1v1h-1z M51,40h1v1h-1z M52,40h1v1h-1z M53,40h1v1h-1z M57,40h1v1h-1z M62,40h1v1h-1z M63,40h1v1h-1z M65,40h1v1h-1z M66,40h1v1h-1z M68,40h1v1h-1z M8,41h1v1h-1z M9,41h1v1h-1z M11,41h1v1h-1z M15,41h1v1h-1z M16,41h1v1h-1z M21,41h1v1h-1z M22,41h1v1h-1z M23,41h1v1h-1z M27,41h1v1h-1z M28,41h1v1h-1z M31,41h1v1h-1z M34,41h1v1h-1z M35,41h1v1h-1z M37,41h1v1h-1z M40,41h1v1h-1z M43,41h1v1h-1z M44,41h1v1h-1z M45,41h1v1h-1z M46,41h1v1h-1z M47,41h1v1h-1z M48,41h1v1h-1z M53,41h1v1h-1z M58,41h1v1h-1z M61,41h1v1h-1z M63,41h1v1h-1z M64,41h1v1h-1z M67,41h1v1h-1z M68,41h1v1h-1z M9,42h1v1h-1z M10,42h1v1h-1z M11,42h1v1h-1z M13,42h1v1h-1z M17,42h1v1h-1z M18,42h1v1h-1z M21,42h1v1h-1z M25,42h1v1h-1z M26,42h1v1h-1z M27,42h1v1h-1z M28,42h1v1h-1z M31,42h1v1h-1z M33,42h1v1h-1z M35,42h1v1h-1z M36,42h1v1h-1z M39,42h1v1h-1z M40,42h1v1h-1z M43,42h1v1h-1z M44,42h1v1h-1z M45,42h1v1h-1z M46,42h1v1h-1z M49,42h1v1h-1z M50,42h1v1h-1z M52,42h1v1h-1z M54,42h1v1h-1z M55,42h1v1h-1z M56,42h1v1h-1z M59,42h1v1h-1z M60,42h1v1h-1z M63,42h1v1h-1z M64,42h1v1h-1z M66,42h1v1h-1z M5,43h1v1h-1z M9,43h1v1h-1z M11,43h1v1h-1z M13,43h1v1h-1z M14,43h1v1h-1z M16,43h1v1h-1z M17,43h1v1h-1z M18,43h1v1h-1z M19,43h1v1h-1z M21,43h1v1h-1z M22,43h1v1h-1z M25,43h1v1h-1z M26,43h1v1h-1z M27,43h1v1h-1z M28,43h1v1h-1z M29,43h1v1h-1z M31,43h1v1h-1z M32,43h1v1h-1z M33,43h1v1h-1z M35,43h1v1h-1z M37,43h1v1h-1z M38,43h1v1h-1z M42,43h1v1h-1z M44,43h1v1h-1z M46,43h1v1h-1z M47,43h1v1h-1z M48,43h1v1h-1z M49,43h1v1h-1z M51,43h1v1h-1z M54,43h1v1h-1z M55,43h1v1h-1z M56,43h1v1h-1z M58,43h1v1h-1z M59,43h1v1h-1z M60,43h1v1h-1z M62,43h1v1h-1z M63,43h1v1h-1z M64,43h1v1h-1z M65,43h1v1h-1z M68,43h1v1h-1z M4,44h1v1h-1z M5,44h1v1h-1z M8,44h1v1h-1z M10,44h1v1h-1z M13,44h1v1h-1z M20,44h1v1h-1z M22,44h1v1h-1z M24,44h1v1h-1z M29,44h1v1h-1z M31,44h1v1h-1z M32,44h1v1h-1z M34,44h1v1h-1z M35,44h1v1h-1z M38,44h1v1h-1z M39,44h1v1h-1z M40,44h1v1h-1z M41,44h1v1h-1z M42,44h1v1h-1z M45,44h1v1h-1z M47,44h1v1h-1z M49,44h1v1h-1z M52,44h1v1h-1z M54,44h1v1h-1z M58,44h1v1h-1z M60,44h1v1h-1z M61,44h1v1h-1z M63,44h1v1h-1z M64,44h1v1h-1z M65,44h1v1h-1z M66,44h1v1h-1z M7,45h1v1h-1z M8,45h1v1h-1z M12,45h1v1h-1z M13,45h1v1h-1z M14,45h1v1h-1z M15,45h1v1h-1z M16,45h1v1h-1z M17,45h1v1h-1z M19,45h1v1h-1z M23,45h1v1h-1z M26,45h1v1h-1z M27,45h1v1h-1z M28,45h1v1h-1z M29,45h1v1h-1z M35,45h1v1h-1z M38,45h1v1h-1z M39,45h1v1h-1z M40,45h1v1h-1z M44,45h1v1h-1z M45,45h1v1h-1z M46,45h1v1h-1z M47,45h1v1h-1z M48,45h1v1h-1z M51,45h1v1h-1z M52,45h1v1h-1z M55,45h1v1h-1z M56,45h1v1h-1z M57,45h1v1h-1z M58,45h1v1h-1z M59,45h1v1h-1z M63,45h1v1h-1z M64,45h1v1h-1z M66,45h1v1h-1z M67,45h1v1h-1z M4,46h1v1h-1z M6,46h1v1h-1z M7,46h1v1h-1z M8,46h1v1h-1z M9,46h1v1h-1z M10,46h1v1h-1z M11,46h1v1h-1z M12,46h1v1h-1z M14,46h1v1h-1z M15,46h1v1h-1z M17,46h1v1h-1z M18,46h1v1h-1z M24,46h1v1h-1z M25,46h1v1h-1z M26,46h1v1h-1z M28,46h1v1h-1z M31,46h1v1h-1z M33,46h1v1h-1z M35,46h1v1h-1z M43,46h1v1h-1z M49,46h1v1h-1z M50,46h1v1h-1z M57,46h1v1h-1z M64,46h1v1h-1z M65,46h1v1h-1z M67,46h1v1h-1z M7,47h1v1h-1z M8,47h1v1h-1z M9,47h1v1h-1z M12,47h1v1h-1z M13,47h1v1h-1z M14,47h1v1h-1z M15,47h1v1h-1z M16,47h1v1h-1z M18,47h1v1h-1z M19,47h1v1h-1z M20,47h1v1h-1z M22,47h1v1h-1z M27,47h1v1h-1z M28,47h1v1h-1z M30,47h1v1h-1z M31,47h1v1h-1z M36,47h1v1h-1z M38,47h1v1h-1z M42,47h1v1h-1z M43,47h1v1h-1z M48,47h1v1h-1z M52,47h1v1h-1z M54,47h1v1h-1z M56,47h1v1h-1z M58,47h1v1h-1z M59,47h1v1h-1z M60,47h1v1h-1z M61,47h1v1h-1z M62,47h1v1h-1z M64,47h1v1h-1z M65,47h1v1h-1z M67,47h1v1h-1z M68,47h1v1h-1z M4,48h1v1h-1z M5,48h1v1h-1z M6,48h1v1h-1z M10,48h1v1h-1z M11,48h1v1h-1z M16,48h1v1h-1z M18,48h1v1h-1z M19,48h1v1h-1z M21,48h1v1h-1z M22,48h1v1h-1z M25,48h1v1h-1z M28,48h1v1h-1z M29,48h1v1h-1z M31,48h1v1h-1z M32,48h1v1h-1z M33,48h1v1h-1z M37,48h1v1h-1z M38,48h1v1h-1z M39,48h1v1h-1z M40,48h1v1h-1z M41,48h1v1h-1z M46,48h1v1h-1z M47,48h1v1h-1z M50,48h1v1h-1z M51,48h1v1h-1z M52,48h1v1h-1z M54,48h1v1h-1z M58,48h1v1h-1z M60,48h1v1h-1z M63,48h1v1h-1z M65,48h1v1h-1z M66,48h1v1h-1z M67,48h1v1h-1z M68,48h1v1h-1z M5,49h1v1h-1z M7,49h1v1h-1z M9,49h1v1h-1z M12,49h1v1h-1z M13,49h1v1h-1z M18,49h1v1h-1z M20,49h1v1h-1z M21,49h1v1h-1z M22,49h1v1h-1z M23,49h1v1h-1z M24,49h1v1h-1z M25,49h1v1h-1z M26,49h1v1h-1z M27,49h1v1h-1z M30,49h1v1h-1z M31,49h1v1h-1z M34,49h1v1h-1z M35,49h1v1h-1z M37,49h1v1h-1z M38,49h1v1h-1z M39,49h1v1h-1z M40,49h1v1h-1z M41,49h1v1h-1z M44,49h1v1h-1z M46,49h1v1h-1z M51,49h1v1h-1z M52,49h1v1h-1z M53,49h1v1h-1z M55,49h1v1h-1z M57,49h1v1h-1z M58,49h1v1h-1z M59,49h1v1h-1z M60,49h1v1h-1z M61,49h1v1h-1z M63,49h1v1h-1z M64,49h1v1h-1z M66,49h1v1h-1z M5,50h1v1h-1z M10,50h1v1h-1z M11,50h1v1h-1z M12,50h1v1h-1z M15,50h1v1h-1z M19,50h1v1h-1z M20,50h1v1h-1z M21,50h1v1h-1z M24,50h1v1h-1z M25,50h1v1h-1z M26,50h1v1h-1z M29,50h1v1h-1z M31,50h1v1h-1z M33,50h1v1h-1z M37,50h1v1h-1z M39,50h1v1h-1z M40,50h1v1h-1z M41,50h1v1h-1z M42,50h1v1h-1z M44,50h1v1h-1z M47,50h1v1h-1z M49,50h1v1h-1z M50,50h1v1h-1z M52,50h1v1h-1z M53,50h1v1h-1z M54,50h1v1h-1z M55,50h1v1h-1z M57,50h1v1h-1z M61,50h1v1h-1z M63,50h1v1h-1z M64,50h1v1h-1z M65,50h1v1h-1z M66,50h1v1h-1z M4,51h1v1h-1z M5,51h1v1h-1z M9,51h1v1h-1z M11,51h1v1h-1z M14,51h1v1h-1z M15,51h1v1h-1z M16,51h1v1h-1z M17,51h1v1h-1z M20,51h1v1h-1z M23,51h1v1h-1z M24,51h1v1h-1z M27,51h1v1h-1z M31,51h1v1h-1z M32,51h1v1h-1z M33,51h1v1h-1z M34,51h1v1h-1z M35,51h1v1h-1z M37,51h1v1h-1z M41,51h1v1h-1z M43,51h1v1h-1z M44,51h1v1h-1z M45,51h1v1h-1z M46,51h1v1h-1z M48,51h1v1h-1z M50,51h1v1h-1z M54,51h1v1h-1z M58,51h1v1h-1z M59,51h1v1h-1z M60,51h1v1h-1z M61,51h1v1h-1z M62,51h1v1h-1z M7,52h1v1h-1z M9,52h1v1h-1z M10,52h1v1h-1z M11,52h1v1h-1z M13,52h1v1h-1z M14,52h1v1h-1z M16,52h1v1h-1z M18,52h1v1h-1z M19,52h1v1h-1z M20,52h1v1h-1z M21,52h1v1h-1z M22,52h1v1h-1z M24,52h1v1h-1z M27,52h1v1h-1z M29,52h1v1h-1z M31,52h1v1h-1z M32,52h1v1h-1z M33,52h1v1h-1z M35,52h1v1h-1z M36,52h1v1h-1z M37,52h1v1h-1z M39,52h1v1h-1z M40,52h1v1h-1z M42,52h1v1h-1z M43,52h1v1h-1z M46,52h1v1h-1z M47,52h1v1h-1z M49,52h1v1h-1z M50,52h1v1h-1z M51,52h1v1h-1z M52,52h1v1h-1z M54,52h1v1h-1z M57,52h1v1h-1z M58,52h1v1h-1z M60,52h1v1h-1z M62,52h1v1h-1z M67,52h1v1h-1z M4,53h1v1h-1z M5,53h1v1h-1z M6,53h1v1h-1z M11,53h1v1h-1z M12,53h1v1h-1z M14,53h1v1h-1z M15,53h1v1h-1z M16,53h1v1h-1z M17,53h1v1h-1z M18,53h1v1h-1z M23,53h1v1h-1z M26,53h1v1h-1z M27,53h1v1h-1z M28,53h1v1h-1z M35,53h1v1h-1z M39,53h1v1h-1z M40,53h1v1h-1z M41,53h1v1h-1z M43,53h1v1h-1z M44,53h1v1h-1z M45,53h1v1h-1z M46,53h1v1h-1z M48,53h1v1h-1z M57,53h1v1h-1z M58,53h1v1h-1z M60,53h1v1h-1z M61,53h1v1h-1z M64,53h1v1h-1z M67,53h1v1h-1z M68,53h1v1h-1z M7,54h1v1h-1z M10,54h1v1h-1z M12,54h1v1h-1z M13,54h1v1h-1z M14,54h1v1h-1z M16,54h1v1h-1z M18,54h1v1h-1z M19,54h1v1h-1z M21,54h1v1h-1z M23,54h1v1h-1z M24,54h1v1h-1z M26,54h1v1h-1z M28,54h1v1h-1z M29,54h1v1h-1z M30,54h1v1h-1z M33,54h1v1h-1z M42,54h1v1h-1z M44,54h1v1h-1z M49,54h1v1h-1z M50,54h1v1h-1z M51,54h1v1h-1z M52,54h1v1h-1z M57,54h1v1h-1z M63,54h1v1h-1z M64,54h1v1h-1z M65,54h1v1h-1z M66,54h1v1h-1z M4,55h1v1h-1z M5,55h1v1h-1z M8,55h1v1h-1z M9,55h1v1h-1z M11,55h1v1h-1z M12,55h1v1h-1z M14,55h1v1h-1z M16,55h1v1h-1z M18,55h1v1h-1z M23,55h1v1h-1z M24,55h1v1h-1z M25,55h1v1h-1z M26,55h1v1h-1z M28,55h1v1h-1z M30,55h1v1h-1z M31,55h1v1h-1z M32,55h1v1h-1z M34,55h1v1h-1z M35,55h1v1h-1z M38,55h1v1h-1z M39,55h1v1h-1z M42,55h1v1h-1z M43,55h1v1h-1z M46,55h1v1h-1z M49,55h1v1h-1z M50,55h1v1h-1z M51,55h1v1h-1z M55,55h1v1h-1z M58,55h1v1h-1z M59,55h1v1h-1z M62,55h1v1h-1z M63,55h1v1h-1z M64,55h1v1h-1z M65,55h1v1h-1z M67,55h1v1h-1z M4,56h1v1h-1z M5,56h1v1h-1z M6,56h1v1h-1z M7,56h1v1h-1z M8,56h1v1h-1z M9,56h1v1h-1z M10,56h1v1h-1z M11,56h1v1h-1z M12,56h1v1h-1z M13,56h1v1h-1z M14,56h1v1h-1z M19,56h1v1h-1z M20,56h1v1h-1z M21,56h1v1h-1z M23,56h1v1h-1z M24,56h1v1h-1z M26,56h1v1h-1z M27,56h1v1h-1z M29,56h1v1h-1z M30,56h1v1h-1z M31,56h1v1h-1z M32,56h1v1h-1z M36,56h1v1h-1z M38,56h1v1h-1z M39,56h1v1h-1z M40,56h1v1h-1z M42,56h1v1h-1z M43,56h1v1h-1z M45,56h1v1h-1z M46,56h1v1h-1z M47,56h1v1h-1z M51,56h1v1h-1z M52,56h1v1h-1z M53,56h1v1h-1z M54,56h1v1h-1z M55,56h1v1h-1z M58,56h1v1h-1z M60,56h1v1h-1z M63,56h1v1h-1z M65,56h1v1h-1z M66,56h1v1h-1z M68,56h1v1h-1z M4,57h1v1h-1z M6,57h1v1h-1z M14,57h1v1h-1z M15,57h1v1h-1z M16,57h1v1h-1z M17,57h1v1h-1z M22,57h1v1h-1z M23,57h1v1h-1z M25,57h1v1h-1z M27,57h1v1h-1z M28,57h1v1h-1z M31,57h1v1h-1z M35,57h1v1h-1z M38,57h1v1h-1z M39,57h1v1h-1z M40,57h1v1h-1z M41,57h1v1h-1z M44,57h1v1h-1z M45,57h1v1h-1z M46,57h1v1h-1z M52,57h1v1h-1z M55,57h1v1h-1z M56,57h1v1h-1z M58,57h1v1h-1z M59,57h1v1h-1z M63,57h1v1h-1z M64,57h1v1h-1z M67,57h1v1h-1z M68,57h1v1h-1z M6,58h1v1h-1z M7,58h1v1h-1z M9,58h1v1h-1z M10,58h1v1h-1z M12,58h1v1h-1z M13,58h1v1h-1z M15,58h1v1h-1z M17,58h1v1h-1z M18,58h1v1h-1z M22,58h1v1h-1z M23,58h1v1h-1z M24,58h1v1h-1z M25,58h1v1h-1z M28,58h1v1h-1z M29,58h1v1h-1z M33,58h1v1h-1z M36,58h1v1h-1z M40,58h1v1h-1z M41,58h1v1h-1z M42,58h1v1h-1z M43,58h1v1h-1z M44,58h1v1h-1z M45,58h1v1h-1z M46,58h1v1h-1z M47,58h1v1h-1z M49,58h1v1h-1z M50,58h1v1h-1z M51,58h1v1h-1z M52,58h1v1h-1z M54,58h1v1h-1z M55,58h1v1h-1z M56,58h1v1h-1z M57,58h1v1h-1z M60,58h1v1h-1z M64,58h1v1h-1z M4,59h1v1h-1z M7,59h1v1h-1z M11,59h1v1h-1z M13,59h1v1h-1z M15,59h1v1h-1z M16,59h1v1h-1z M17,59h1v1h-1z M20,59h1v1h-1z M22,59h1v1h-1z M25,59h1v1h-1z M27,59h1v1h-1z M28,59h1v1h-1z M29,59h1v1h-1z M30,59h1v1h-1z M33,59h1v1h-1z M38,59h1v1h-1z M42,59h1v1h-1z M44,59h1v1h-1z M45,59h1v1h-1z M47,59h1v1h-1z M48,59h1v1h-1z M50,59h1v1h-1z M54,59h1v1h-1z M56,59h1v1h-1z M58,59h1v1h-1z M59,59h1v1h-1z M60,59h1v1h-1z M62,59h1v1h-1z M63,59h1v1h-1z M65,59h1v1h-1z M67,59h1v1h-1z M68,59h1v1h-1z M5,60h1v1h-1z M6,60h1v1h-1z M8,60h1v1h-1z M10,60h1v1h-1z M11,60h1v1h-1z M14,60h1v1h-1z M15,60h1v1h-1z M16,60h1v1h-1z M19,60h1v1h-1z M20,60h1v1h-1z M22,60h1v1h-1z M23,60h1v1h-1z M24,60h1v1h-1z M29,60h1v1h-1z M32,60h1v1h-1z M34,60h1v1h-1z M35,60h1v1h-1z M36,60h1v1h-1z M37,60h1v1h-1z M38,60h1v1h-1z M39,60h1v1h-1z M40,60h1v1h-1z M42,60h1v1h-1z M46,60h1v1h-1z M47,60h1v1h-1z M49,60h1v1h-1z M51,60h1v1h-1z M52,60h1v1h-1z M53,60h1v1h-1z M60,60h1v1h-1z M61,60h1v1h-1z M62,60h1v1h-1z M63,60h1v1h-1z M64,60h1v1h-1z M66,60h1v1h-1z M67,60h1v1h-1z M12,61h1v1h-1z M13,61h1v1h-1z M14,61h1v1h-1z M16,61h1v1h-1z M17,61h1v1h-1z M18,61h1v1h-1z M19,61h1v1h-1z M21,61h1v1h-1z M23,61h1v1h-1z M25,61h1v1h-1z M26,61h1v1h-1z M27,61h1v1h-1z M28,61h1v1h-1z M30,61h1v1h-1z M33,61h1v1h-1z M34,61h1v1h-1z M38,61h1v1h-1z M39,61h1v1h-1z M40,61h1v1h-1z M45,61h1v1h-1z M46,61h1v1h-1z M47,61h1v1h-1z M51,61h1v1h-1z M52,61h1v1h-1z M53,61h1v1h-1z M57,61h1v1h-1z M58,61h1v1h-1z M59,61h1v1h-1z M60,61h1v1h-1z M64,61h1v1h-1z M66,61h1v1h-1z M67,61h1v1h-1z M4,62h1v1h-1z M5,62h1v1h-1z M6,62h1v1h-1z M7,62h1v1h-1z M8,62h1v1h-1z M9,62h1v1h-1z M10,62h1v1h-1z M12,62h1v1h-1z M15,62h1v1h-1z M17,62h1v1h-1z M19,62h1v1h-1z M21,62h1v1h-1z M23,62h1v1h-1z M26,62h1v1h-1z M27,62h1v1h-1z M28,62h1v1h-1z M29,62h1v1h-1z M32,62h1v1h-1z M34,62h1v1h-1z M36,62h1v1h-1z M38,62h1v1h-1z M43,62h1v1h-1z M47,62h1v1h-1z M50,62h1v1h-1z M51,62h1v1h-1z M52,62h1v1h-1z M53,62h1v1h-1z M55,62h1v1h-1z M56,62h1v1h-1z M60,62h1v1h-1z M62,62h1v1h-1z M64,62h1v1h-1z M66,62h1v1h-1z M67,62h1v1h-1z M4,63h1v1h-1z M10,63h1v1h-1z M15,63h1v1h-1z M16,63h1v1h-1z M17,63h1v1h-1z M19,63h1v1h-1z M21,63h1v1h-1z M25,63h1v1h-1z M26,63h1v1h-1z M29,63h1v1h-1z M31,63h1v1h-1z M34,63h1v1h-1z M38,63h1v1h-1z M39,63h1v1h-1z M41,63h1v1h-1z M43,63h1v1h-1z M48,63h1v1h-1z M51,63h1v1h-1z M52,63h1v1h-1z M55,63h1v1h-1z M56,63h1v1h-1z M57,63h1v1h-1z M59,63h1v1h-1z M60,63h1v1h-1z M64,63h1v1h-1z M65,63h1v1h-1z M68,63h1v1h-1z M4,64h1v1h-1z M6,64h1v1h-1z M7,64h1v1h-1z M8,64h1v1h-1z M10,64h1v1h-1z M12,64h1v1h-1z M13,64h1v1h-1z M15,64h1v1h-1z M16,64h1v1h-1z M17,64h1v1h-1z M18,64h1v1h-1z M21,64h1v1h-1z M22,64h1v1h-1z M23,64h1v1h-1z M27,64h1v1h-1z M28,64h1v1h-1z M29,64h1v1h-1z M31,64h1v1h-1z M32,64h1v1h-1z M33,64h1v1h-1z M34,64h1v1h-1z M35,64h1v1h-1z M36,64h1v1h-1z M37,64h1v1h-1z M38,64h1v1h-1z M39,64h1v1h-1z M40,64h1v1h-1z M42,64h1v1h-1z M45,64h1v1h-1z M46,64h1v1h-1z M47,64h1v1h-1z M51,64h1v1h-1z M52,64h1v1h-1z M53,64h1v1h-1z M54,64h1v1h-1z M55,64h1v1h-1z M57,64h1v1h-1z M58,64h1v1h-1z M60,64h1v1h-1z M61,64h1v1h-1z M62,64h1v1h-1z M63,64h1v1h-1z M64,64h1v1h-1z M66,64h1v1h-1z M67,64h1v1h-1z M68,64h1v1h-1z M4,65h1v1h-1z M6,65h1v1h-1z M7,65h1v1h-1z M8,65h1v1h-1z M10,65h1v1h-1z M12,65h1v1h-1z M14,65h1v1h-1z M15,65h1v1h-1z M16,65h1v1h-1z M17,65h1v1h-1z M19,65h1v1h-1z M26,65h1v1h-1z M28,65h1v1h-1z M29,65h1v1h-1z M30,65h1v1h-1z M31,65h1v1h-1z M40,65h1v1h-1z M41,65h1v1h-1z M44,65h1v1h-1z M46,65h1v1h-1z M48,65h1v1h-1z M52,65h1v1h-1z M53,65h1v1h-1z M55,65h1v1h-1z M56,65h1v1h-1z M58,65h1v1h-1z M60,65h1v1h-1z M62,65h1v1h-1z M66,65h1v1h-1z M67,65h1v1h-1z M4,66h1v1h-1z M6,66h1v1h-1z M7,66h1v1h-1z M8,66h1v1h-1z M10,66h1v1h-1z M12,66h1v1h-1z M14,66h1v1h-1z M21,66h1v1h-1z M22,66h1v1h-1z M23,66h1v1h-1z M27,66h1v1h-1z M28,66h1v1h-1z M32,66h1v1h-1z M33,66h1v1h-1z M40,66h1v1h-1z M42,66h1v1h-1z M44,66h1v1h-1z M45,66h1v1h-1z M47,66h1v1h-1z M48,66h1v1h-1z M50,66h1v1h-1z M52,66h1v1h-1z M53,66h1v1h-1z M54,66h1v1h-1z M55,66h1v1h-1z M56,66h1v1h-1z M58,66h1v1h-1z M59,66h1v1h-1z M61,66h1v1h-1z M64,66h1v1h-1z M66,66h1v1h-1z M67,66h1v1h-1z M4,67h1v1h-1z M10,67h1v1h-1z M12,67h1v1h-1z M14,67h1v1h-1z M19,67h1v1h-1z M21,67h1v1h-1z M22,67h1v1h-1z M25,67h1v1h-1z M26,67h1v1h-1z M28,67h1v1h-1z M29,67h1v1h-1z M33,67h1v1h-1z M36,67h1v1h-1z M41,67h1v1h-1z M42,67h1v1h-1z M43,67h1v1h-1z M44,67h1v1h-1z M45,67h1v1h-1z M48,67h1v1h-1z M49,67h1v1h-1z M51,67h1v1h-1z M54,67h1v1h-1z M55,67h1v1h-1z M56,67h1v1h-1z M57,67h1v1h-1z M58,67h1v1h-1z M63,67h1v1h-1z M67,67h1v1h-1z M4,68h1v1h-1z M5,68h1v1h-1z M6,68h1v1h-1z M7,68h1v1h-1z M8,68h1v1h-1z M9,68h1v1h-1z M10,68h1v1h-1z M12,68h1v1h-1z M14,68h1v1h-1z M16,68h1v1h-1z M18,68h1v1h-1z M19,68h1v1h-1z M21,68h1v1h-1z M22,68h1v1h-1z M24,68h1v1h-1z M27,68h1v1h-1z M29,68h1v1h-1z M31,68h1v1h-1z M32,68h1v1h-1z M33,68h1v1h-1z M34,68h1v1h-1z M36,68h1v1h-1z M38,68h1v1h-1z M39,68h1v1h-1z M40,68h1v1h-1z M41,68h1v1h-1z M42,68h1v1h-1z M45,68h1v1h-1z M47,68h1v1h-1z M51,68h1v1h-1z M52,68h1v1h-1z M53,68h1v1h-1z M58,68h1v1h-1z M62,68h1v1h-1z M64,68h1v1h-1z" fill="#000000" stroke-width="0"/>
</svg>

